<svg width="92" height="42" viewBox="0 0 92 42" fill="none" xmlns="http://www.w3.org/2000/svg">
<path d="M8.63965 0.765625V42H0.341797V0.765625H8.63965ZM29.1152 0.765625L15.748 21.2412L7.56348 31.4365L5.97754 23.1387L11.2734 14.3027L19.0332 0.765625H29.1152ZM19.543 42L10.5371 23.0537L16.626 17.6729L29.3135 42H19.543ZM40.3263 0.765625V42H32.0285V0.765625H40.3263ZM60.8019 0.765625L47.4347 21.2412L39.2501 31.4365L37.6642 23.1387L42.9601 14.3027L50.7199 0.765625H60.8019ZM51.2296 42L42.2238 23.0537L48.3126 17.6729L61.0001 42H51.2296ZM77.762 27.4717H69.3225V20.5898H77.762C78.9326 20.5898 79.886 20.3255 80.6223 19.7969C81.3776 19.2682 81.9251 18.5413 82.2649 17.6162C82.6048 16.6722 82.7747 15.6149 82.7747 14.4443C82.7747 13.2549 82.5953 12.1504 82.2366 11.1309C81.8968 10.0924 81.3587 9.25228 80.6223 8.61035C79.9049 7.96842 78.9515 7.64746 77.762 7.64746H71.9847V42H63.7151V0.765625H77.762C80.5374 0.765625 82.9257 1.35091 84.927 2.52148C86.9283 3.69206 88.4576 5.30632 89.5149 7.36426C90.5911 9.40332 91.1292 11.7445 91.1292 14.3877C91.1292 17.0498 90.5911 19.3626 89.5149 21.3262C88.4576 23.2708 86.9283 24.7812 84.927 25.8574C82.9257 26.9336 80.5374 27.4717 77.762 27.4717Z" fill="url(#paint0_linear_8_8654)"/>
<defs>
<linearGradient id="paint0_linear_8_8654" x1="60.5" y1="-12" x2="60.5" y2="68" gradientUnits="userSpaceOnUse">
<stop stop-color="#796DF0"/>
<stop offset="1" stop-color="#11ACED"/>
</linearGradient>
</defs>
</svg>
